<svg width="56" height="56" viewBox="0 0 56 56" fill="none" xmlns="http://www.w3.org/2000/svg">
<g id="Element Icon">
<rect width="56" height="56" fill="white"/>
<g id="Vector">
<path fill-rule="evenodd" clip-rule="evenodd" d="M32.8372 21.6512C32.0024 21.6512 31.3256 22.3279 31.3256 23.1628C31.3256 23.9976 32.0024 24.6744 32.8372 24.6744C33.6721 24.6744 34.3488 23.9976 34.3488 23.1628C34.3488 22.3279 33.6721 21.6512 32.8372 21.6512ZM29.5116 23.1628C29.5116 21.3261 31.0005 19.8372 32.8372 19.8372C34.6739 19.8372 36.1628 21.3261 36.1628 23.1628C36.1628 24.9995 34.6739 26.4884 32.8372 26.4884C31.0005 26.4884 29.5116 24.9995 29.5116 23.1628Z" fill="#111322"/>
<path fill-rule="evenodd" clip-rule="evenodd" d="M27.9306 15H28.0694C30.8609 15 33.0486 15 34.7555 15.2295C36.5026 15.4644 37.8813 15.9545 38.9634 17.0366C40.0455 18.1187 40.5356 19.4974 40.7705 21.2445C41 22.9514 41 25.1391 41 27.9306V28.0694C41 30.8609 41 33.0486 40.7705 34.7555C40.5356 36.5026 40.0455 37.8813 38.9634 38.9634C37.8813 40.0455 36.5026 40.5356 34.7555 40.7705C33.0486 41 30.8609 41 28.0694 41H27.9306C25.1391 41 22.9514 41 21.2445 40.7705C19.4974 40.5356 18.1187 40.0455 17.0366 38.9634C15.9545 37.8813 15.4644 36.5026 15.2295 34.7555C15 33.0486 15 30.8609 15 28.0694V27.9306C15 25.1391 15 22.9514 15.2295 21.2445C15.4644 19.4974 15.9545 18.1187 17.0366 17.0366C18.1187 15.9545 19.4974 15.4644 21.2445 15.2295C22.9514 15 25.1391 15 27.9306 15ZM18.3193 37.6807C17.6304 36.9918 17.2351 36.0598 17.0272 34.5138C16.8416 33.1333 16.8175 31.3722 16.8144 29.016L18.6224 27.434C19.3651 26.7842 20.4844 26.8214 21.1821 27.5192L26.3697 32.7068C27.5124 33.8495 29.3112 34.0053 30.6334 33.0761L30.994 32.8227C32.0318 32.0933 33.4359 32.1778 34.3788 33.0264L38.277 36.5348C38.3194 36.573 38.3644 36.6064 38.4114 36.6351C38.216 37.0474 37.9752 37.3863 37.6807 37.6807C36.9918 38.3696 36.0598 38.7649 34.5138 38.9728C32.9417 39.1841 30.876 39.186 28 39.186C25.124 39.186 23.0583 39.1841 21.4862 38.9728C19.9402 38.7649 19.0082 38.3696 18.3193 37.6807ZM21.4862 17.0272C19.9402 17.2351 19.0082 17.6304 18.3193 18.3193C17.6304 19.0082 17.2351 19.9402 17.0272 21.4862C16.8517 22.7916 16.8206 24.4375 16.8151 26.605L17.4279 26.0688C18.8893 24.7902 21.0917 24.8635 22.4648 26.2366L27.6524 31.4241C28.1718 31.9436 28.9894 32.0144 29.5904 31.592L29.951 31.3386C31.6807 30.123 34.0208 30.2638 35.5922 31.6781L38.9468 34.6972C38.9558 34.637 38.9644 34.5759 38.9728 34.5138C39.1841 32.9417 39.186 30.876 39.186 28C39.186 25.124 39.1841 23.0583 38.9728 21.4862C38.7649 19.9402 38.3696 19.0082 37.6807 18.3193C36.9918 17.6304 36.0598 17.2351 34.5138 17.0272C32.9417 16.8159 30.876 16.814 28 16.814C25.124 16.814 23.0583 16.8159 21.4862 17.0272Z" fill="#111322"/>
</g>
</g>
</svg>
