<svg width="56" height="56" viewBox="0 0 56 56" fill="none" xmlns="http://www.w3.org/2000/svg">
<rect width="56" height="56" fill="white"/>
<path d="M10.649 21.6243C9.7932 21.6243 9.0695 21.4089 8.47791 20.9781C7.88632 20.5416 7.43832 19.9529 7.13391 19.212C6.8295 18.4653 6.6773 17.6296 6.6773 16.7049C6.6773 15.7629 6.8295 14.9244 7.13391 14.1892C7.44407 13.4483 7.89781 12.8653 8.49515 12.4403C9.09248 12.0152 9.82766 11.8027 10.7007 11.8027C11.5507 11.8027 12.2802 12.0181 12.889 12.4489C13.4978 12.8797 13.963 13.4655 14.2847 14.2064C14.6121 14.9473 14.7758 15.7802 14.7758 16.7049C14.7758 17.6354 14.6121 18.471 14.2847 19.212C13.9573 19.9529 13.4863 20.5416 12.8718 20.9781C12.2572 21.4089 11.5163 21.6243 10.649 21.6243ZM6.46191 25.5012V12.0612H7.59915V19.0655H7.73699V25.5012H6.46191ZM10.5198 20.444C11.1688 20.444 11.7087 20.2803 12.1395 19.9529C12.5702 19.6255 12.8919 19.1804 13.1044 18.6175C13.3226 18.0489 13.4318 17.4114 13.4318 16.7049C13.4318 16.0042 13.3255 15.3724 13.113 14.8095C12.9005 14.2466 12.576 13.8015 12.1395 13.4741C11.7087 13.1467 11.1602 12.983 10.4939 12.983C9.84489 12.983 9.30499 13.141 8.87422 13.4569C8.4492 13.7728 8.13043 14.2122 7.91791 14.775C7.7054 15.3322 7.59915 15.9755 7.59915 16.7049C7.59915 17.4228 7.7054 18.0661 7.91791 18.6347C8.13043 19.1976 8.45207 19.6399 8.88284 19.9615C9.31361 20.2831 9.85925 20.444 10.5198 20.444Z" fill="black"/>
<path fill-rule="evenodd" clip-rule="evenodd" d="M17.2311 30.962C17.2311 31.4081 16.8695 31.7697 16.4235 31.7697H7.26961C6.82353 31.7697 6.46191 31.4081 6.46191 30.962C6.46191 30.5159 6.82353 30.1543 7.26961 30.1543H16.4235C16.8695 30.1543 17.2311 30.5159 17.2311 30.962Z" fill="#111322"/>
<path fill-rule="evenodd" clip-rule="evenodd" d="M49.5388 38.5001C49.5388 38.9462 49.1772 39.3078 48.7311 39.3078H7.26961C6.82353 39.3078 6.46191 38.9462 6.46191 38.5001C6.46191 38.054 6.82353 37.6924 7.26961 37.6924H48.7311C49.1772 37.6924 49.5388 38.054 49.5388 38.5001Z" fill="#111322"/>
<path fill-rule="evenodd" clip-rule="evenodd" d="M49.5388 46.0391C49.5388 46.4852 49.1772 46.8468 48.7311 46.8468H7.26961C6.82353 46.8468 6.46191 46.4852 6.46191 46.0391C6.46191 45.5931 6.82353 45.2314 7.26961 45.2314H48.7311C49.1772 45.2314 49.5388 45.5931 49.5388 46.0391Z" fill="#111322"/>
</svg>
