<svg width="56" height="56" viewBox="0 0 56 56" fill="none" xmlns="http://www.w3.org/2000/svg">
<g id="Element Icon">
<rect width="56" height="56" fill="white"/>
<g id="Vector">
<path d="M28.738 15.3252C28.5486 15.118 28.2808 15 28 15C27.7192 15 27.4514 15.118 27.262 15.3252L21.9286 21.1586C21.556 21.5662 21.5843 22.1987 21.9919 22.5714C22.3995 22.944 23.032 22.9157 23.4047 22.5081L27 18.5757V33.3333C27 33.8856 27.4477 34.3333 28 34.3333C28.5523 34.3333 29 33.8856 29 33.3333V18.5757L32.5953 22.5081C32.968 22.9157 33.6005 22.944 34.0081 22.5714C34.4157 22.1987 34.444 21.5662 34.0714 21.1586L28.738 15.3252Z" fill="black" fill-opacity="0.88"/>
<path d="M17 32C17 31.4477 16.5523 31 16 31C15.4477 31 15 31.4477 15 32V32.0732C15 33.8966 15 35.3664 15.1554 36.5223C15.3167 37.7225 15.6619 38.733 16.4645 39.5355C17.267 40.3381 18.2775 40.6833 19.4777 40.8446C20.6336 41 22.1034 41 23.9268 41H32.0732C33.8966 41 35.3664 41 36.5223 40.8446C37.7225 40.6833 38.733 40.3381 39.5355 39.5355C40.3381 38.733 40.6833 37.7225 40.8446 36.5223C41.0001 35.3664 41 33.8966 41 32.0732V32C41 31.4477 40.5523 31 40 31C39.4477 31 39 31.4477 39 32C39 33.9139 38.9979 35.2487 38.8625 36.2558C38.7309 37.2342 38.4903 37.7523 38.1213 38.1213C37.7523 38.4903 37.2342 38.7309 36.2558 38.8625C35.2487 38.9979 33.9139 39 32 39H24C22.0861 39 20.7513 38.9979 19.7442 38.8625C18.7658 38.7309 18.2477 38.4903 17.8787 38.1213C17.5097 37.7523 17.2691 37.2342 17.1375 36.2558C17.0021 35.2487 17 33.9139 17 32Z" fill="black" fill-opacity="0.88"/>
</g>
</g>
</svg>
