<svg width="56" height="56" viewBox="0 0 56 56" fill="none" xmlns="http://www.w3.org/2000/svg">
<rect width="56" height="56" fill="white"/>
<path fill-rule="evenodd" clip-rule="evenodd" d="M49.5388 30.962C49.5388 31.4081 49.1772 31.7697 48.7311 31.7697H7.26961C6.82353 31.7697 6.46191 31.4081 6.46191 30.962C6.46191 30.5159 6.82353 30.1543 7.2696 30.1543H48.7311C49.1772 30.1543 49.5388 30.5159 49.5388 30.962Z" fill="#111322"/>
<path fill-rule="evenodd" clip-rule="evenodd" d="M49.5388 38.5001C49.5388 38.9462 49.1772 39.3078 48.7311 39.3078H7.26961C6.82353 39.3078 6.46191 38.9462 6.46191 38.5001C6.46191 38.054 6.82353 37.6924 7.26961 37.6924H48.7311C49.1772 37.6924 49.5388 38.054 49.5388 38.5001Z" fill="#111322"/>
<path fill-rule="evenodd" clip-rule="evenodd" d="M49.5388 46.0391C49.5388 46.4852 49.1772 46.8468 48.7311 46.8468H7.26961C6.82353 46.8468 6.46191 46.4852 6.46191 46.0391C6.46191 45.5931 6.82353 45.2314 7.26961 45.2314H48.7311C49.1772 45.2314 49.5388 45.5931 49.5388 46.0391Z" fill="#111322"/>
<path d="M6.46191 22.6155V9.69238H8.37347V15.2655H14.9588V9.69238H16.8795V22.6155H14.9588V17.0334H8.37347V22.6155H6.46191Z" fill="black"/>
<path d="M21.7445 22.6155V11.7565L19.2659 13.2373V11.1462L21.7445 9.69238H23.6927V22.6155H21.7445Z" fill="black"/>
</svg>
