<svg width="56" height="56" viewBox="0 0 56 56" fill="none" xmlns="http://www.w3.org/2000/svg">
<g id="Element Icon">
<rect width="56" height="56" fill="white"/>
<g id="Union">
<path d="M33.833 29.9441C34.4467 29.9441 34.9441 29.4467 34.9441 28.833C34.9441 28.2194 34.4467 27.7219 33.833 27.7219C33.2194 27.7219 32.7219 28.2194 32.7219 28.833C32.7219 29.4467 33.2194 29.9441 33.833 29.9441Z" fill="#111322"/>
<path d="M33.833 34.3886C34.4467 34.3886 34.9441 33.8911 34.9441 33.2775C34.9441 32.6638 34.4467 32.1663 33.833 32.1663C33.2194 32.1663 32.7219 32.6638 32.7219 33.2775C32.7219 33.8911 33.2194 34.3886 33.833 34.3886Z" fill="#111322"/>
<path d="M29.3886 28.833C29.3886 29.4467 28.8911 29.9441 28.2775 29.9441C27.6638 29.9441 27.1663 29.4467 27.1663 28.833C27.1663 28.2194 27.6638 27.7219 28.2775 27.7219C28.8911 27.7219 29.3886 28.2194 29.3886 28.833Z" fill="#111322"/>
<path d="M29.3886 33.2775C29.3886 33.8911 28.8911 34.3886 28.2775 34.3886C27.6638 34.3886 27.1663 33.8911 27.1663 33.2775C27.1663 32.6638 27.6638 32.1663 28.2775 32.1663C28.8911 32.1663 29.3886 32.6638 29.3886 33.2775Z" fill="#111322"/>
<path d="M22.7219 29.9441C23.3355 29.9441 23.833 29.4467 23.833 28.833C23.833 28.2194 23.3355 27.7219 22.7219 27.7219C22.1082 27.7219 21.6108 28.2194 21.6108 28.833C21.6108 29.4467 22.1082 29.9441 22.7219 29.9441Z" fill="#111322"/>
<path d="M22.7219 34.3886C23.3355 34.3886 23.833 33.8911 23.833 33.2775C23.833 32.6638 23.3355 32.1663 22.7219 32.1663C22.1082 32.1663 21.6108 32.6638 21.6108 33.2775C21.6108 33.8911 22.1082 34.3886 22.7219 34.3886Z" fill="#111322"/>
<path fill-rule="evenodd" clip-rule="evenodd" d="M22.7219 16.333C23.1821 16.333 23.5552 16.7061 23.5552 17.1663V18.0138C24.2908 17.9997 25.1011 17.9997 25.9924 17.9997H30.5624C31.4536 17.9997 32.2641 17.9997 32.9997 18.0138V17.1663C32.9997 16.7061 33.3728 16.333 33.833 16.333C34.2932 16.333 34.6663 16.7061 34.6663 17.1663V18.0853C34.9552 18.1073 35.2287 18.135 35.4875 18.1698C36.7902 18.345 37.8446 18.714 38.6761 19.5455C39.5076 20.377 39.8766 21.4314 40.0517 22.7341C40.2219 23.9999 40.2219 25.6172 40.2219 27.6592V30.0068C40.2219 32.0487 40.2219 33.6661 40.0517 34.9319C39.8766 36.2346 39.5076 37.289 38.6761 38.1205C37.8446 38.952 36.7902 39.321 35.4875 39.4962C34.2217 39.6664 32.6043 39.6664 30.5624 39.6663H25.9926C23.9506 39.6664 22.3332 39.6664 21.0674 39.4962C19.7647 39.321 18.7103 38.952 17.8788 38.1205C17.0473 37.289 16.6783 36.2346 16.5032 34.9319C16.333 33.6661 16.333 32.0488 16.333 30.0068V27.6592C16.333 25.6173 16.333 23.9999 16.5032 22.7341C16.6783 21.4314 17.0473 20.377 17.8788 19.5455C18.7103 18.714 19.7647 18.345 21.0674 18.1698C21.3262 18.135 21.5997 18.1073 21.8886 18.0853V17.1663C21.8886 16.7061 22.2617 16.333 22.7219 16.333ZM21.2895 19.8216C20.1716 19.9719 19.5276 20.2538 19.0573 20.724C18.5871 21.1942 18.3053 21.8383 18.155 22.9562C18.1295 23.1455 18.1082 23.3448 18.0904 23.5552H38.4645C38.4467 23.3448 38.4254 23.1455 38.3999 22.9562C38.2496 21.8383 37.9678 21.1942 37.4976 20.724C37.0273 20.2538 36.3833 19.9719 35.2654 19.8216C34.1235 19.6681 32.6184 19.6663 30.4997 19.6663H26.0552C23.9365 19.6663 22.4314 19.6681 21.2895 19.8216ZM17.9997 27.7219C17.9997 26.773 18 25.9471 18.0142 25.2219H38.5407C38.5549 25.9471 38.5552 26.773 38.5552 27.7219V29.9441C38.5552 32.0628 38.5535 33.568 38.3999 34.7098C38.2496 35.8277 37.9678 36.4718 37.4976 36.942C37.0273 37.4122 36.3833 37.6941 35.2654 37.8444C34.1235 37.9979 32.6184 37.9997 30.4997 37.9997H26.0552C23.9365 37.9997 22.4314 37.9979 21.2895 37.8444C20.1716 37.6941 19.5276 37.4122 19.0573 36.942C18.5871 36.4718 18.3053 35.8277 18.155 34.7098C18.0014 33.568 17.9997 32.0628 17.9997 29.9441V27.7219Z" fill="#111322"/>
</g>
</g>
</svg>
