<svg width="56" height="56" viewBox="0 0 56 56" fill="none" xmlns="http://www.w3.org/2000/svg">
<rect width="56" height="56" fill="white"/>
<rect x="8.28809" y="20.1348" width="41.5769" height="16.8077" rx="3.25" stroke="#111322" stroke-width="1.5" stroke-linejoin="round"/>
<path fill-rule="evenodd" clip-rule="evenodd" d="M11.8461 28.835C11.8461 28.3738 12.2199 28 12.6811 28L31.4726 28C31.9338 28 32.3076 28.3738 32.3076 28.835C32.3076 29.2962 31.9338 29.67 31.4726 29.67L12.6811 29.67C12.2199 29.67 11.8461 29.2962 11.8461 28.835Z" fill="#111322"/>
<path fill-rule="evenodd" clip-rule="evenodd" d="M36.6153 27.274C36.6153 26.6811 37.2888 26.3393 37.7673 26.6894L40.9244 28.999C41.2796 29.2589 41.7629 29.256 42.1149 28.9919L45.1589 26.7084C45.6322 26.3534 46.3076 26.691 46.3076 27.2826C46.3076 27.5086 46.2013 27.7213 46.0205 27.8569L42.1149 30.7867C41.7629 31.0508 41.2796 31.0537 40.9244 30.7939L36.912 27.8586C36.7255 27.7222 36.6153 27.505 36.6153 27.274Z" fill="#111322"/>
</svg>
