<svg width="56" height="56" viewBox="0 0 56 56" fill="none" xmlns="http://www.w3.org/2000/svg">
<rect width="56" height="56" fill="white"/>
<path d="M6.46191 22.6152V13.1207H7.89618V17.2152H12.8372V13.1207H14.2783V22.6152H12.8372V18.5141H7.89618V22.6152H6.46191Z" fill="black"/>
<path d="M15.9317 22.6086L15.9385 21.3822L20.2413 17.6767C20.589 17.3822 20.8246 17.1009 20.9482 16.8327C21.0763 16.5646 21.1403 16.2965 21.1403 16.0283C21.1403 15.6899 21.0625 15.3866 20.907 15.1185C20.7514 14.8459 20.5364 14.6305 20.2619 14.4723C19.9874 14.3141 19.6717 14.2349 19.3149 14.2349C18.9489 14.2349 18.6218 14.3185 18.3335 14.4855C18.0499 14.6481 17.828 14.8657 17.6679 15.1382C17.5078 15.4108 17.43 15.7053 17.4346 16.0218H15.966C15.966 15.4064 16.1101 14.8679 16.3983 14.4064C16.6911 13.9404 17.0914 13.5778 17.5993 13.3185C18.1071 13.0547 18.6881 12.9229 19.3423 12.9229C19.9645 12.9229 20.5227 13.0591 21.0168 13.3316C21.5109 13.5998 21.8998 13.969 22.1834 14.4393C22.4716 14.9097 22.6158 15.4459 22.6158 16.0481C22.6158 16.4833 22.5563 16.8525 22.4373 17.1558C22.3184 17.4591 22.14 17.7404 21.9021 17.9998C21.6642 18.2591 21.3668 18.5404 21.0099 18.8437L17.6885 21.6921L17.5306 21.2965H22.6158V22.6086H15.9317Z" fill="black"/>
<path fill-rule="evenodd" clip-rule="evenodd" d="M49.5388 30.962C49.5388 31.4081 49.1772 31.7697 48.7311 31.7697H7.26961C6.82353 31.7697 6.46191 31.4081 6.46191 30.962C6.46191 30.5159 6.82353 30.1543 7.2696 30.1543H48.7311C49.1772 30.1543 49.5388 30.5159 49.5388 30.962Z" fill="#111322"/>
<path fill-rule="evenodd" clip-rule="evenodd" d="M49.5388 38.5001C49.5388 38.9462 49.1772 39.3078 48.7311 39.3078H7.26961C6.82353 39.3078 6.46191 38.9462 6.46191 38.5001C6.46191 38.054 6.82353 37.6924 7.26961 37.6924H48.7311C49.1772 37.6924 49.5388 38.054 49.5388 38.5001Z" fill="#111322"/>
<path fill-rule="evenodd" clip-rule="evenodd" d="M49.5388 46.0391C49.5388 46.4852 49.1772 46.8468 48.7311 46.8468H7.26961C6.82353 46.8468 6.46191 46.4852 6.46191 46.0391C6.46191 45.5931 6.82353 45.2314 7.26961 45.2314H48.7311C49.1772 45.2314 49.5388 45.5931 49.5388 46.0391Z" fill="#111322"/>
</svg>
