<svg width="28" height="28" viewBox="0 0 28 28" fill="none" xmlns="http://www.w3.org/2000/svg">
<g id="Group 1000001877">
<path id="Vector" d="M15.6277 2.6114L9.37147 0.063728C9.16263 -0.0212427 8.92794 -0.0212427 8.7191 0.063728C8.51027 0.148755 8.34428 0.31188 8.25779 0.51724L5.71572 6.55055L1.27343 11.8161C1.09415 12.0286 1.03289 12.3143 1.10955 12.5799L3.52103 20.9293C3.59217 21.1757 3.77408 21.3766 4.01479 21.4747C4.11952 21.5173 4.23039 21.5385 4.34098 21.5385C4.48452 21.5385 4.62761 21.5028 4.7562 21.4324L12.4669 17.2048C12.7121 17.0704 12.8743 16.8257 12.9004 16.5508L13.5468 9.73944L16.089 3.70629C16.2691 3.27876 16.0626 2.78854 15.6277 2.6114ZM11.2446 15.9559L6.06656 18.7948L8.27302 13.558C8.45316 13.1305 8.24665 12.6402 7.8117 12.4631C7.37681 12.286 6.8781 12.4891 6.69796 12.9166L4.49145 18.1535L2.87207 12.5464L6.70864 7.99896L9.25577 9.0361L11.8029 10.0733L11.2446 15.9559ZM12.2487 8.44074L8.9172 7.08423L7.56757 6.53468L9.50655 1.9328L14.1877 3.83903L12.2487 8.44074Z" fill="black"/>
<path id="Vector_2" d="M27.1797 16.1543H18.3933C16.4875 16.1543 14.937 17.6618 14.937 19.5147C14.937 21.3675 16.4875 22.8749 18.3933 22.8749C19.3944 22.8749 20.2088 23.6668 20.2088 24.6401C20.2088 25.6135 19.3944 26.4054 18.3933 26.4054H9.60679H0.820312C0.367281 26.4054 0 26.7625 0 27.2029C0 27.6434 0.367281 28.0005 0.820312 28.0005H18.3933C20.299 28.0005 21.8495 26.493 21.8495 24.6401C21.8495 22.7872 20.299 21.2798 18.3933 21.2798C17.3921 21.2798 16.5776 20.4879 16.5776 19.5147C16.5776 18.5412 17.3921 17.7494 18.3933 17.7494H27.1797C27.6327 17.7494 28 17.3923 28 16.9518C28 16.5114 27.6327 16.1543 27.1797 16.1543Z" fill="black"/>
</g>
</svg>
