<svg width="20" height="20" viewBox="0 0 20 20" fill="none" xmlns="http://www.w3.org/2000/svg">
<path d="M2.49935 9.16667H17.4993C17.7204 9.16667 17.9323 9.07887 18.0886 8.92259C18.2449 8.76631 18.3327 8.55435 18.3327 8.33333C18.3327 8.11232 18.2449 7.90036 18.0886 7.74408C17.9323 7.5878 17.7204 7.5 17.4993 7.5H2.49935C2.27834 7.5 2.06637 7.5878 1.91009 7.74408C1.75381 7.90036 1.66602 8.11232 1.66602 8.33333C1.66602 8.55435 1.75381 8.76631 1.91009 8.92259C2.06637 9.07887 2.27834 9.16667 2.49935 9.16667ZM17.4993 10.8333H2.49935C2.27834 10.8333 2.06637 10.9211 1.91009 11.0774C1.75381 11.2337 1.66602 11.4457 1.66602 11.6667C1.66602 11.8877 1.75381 12.0996 1.91009 12.2559C2.06637 12.4122 2.27834 12.5 2.49935 12.5H17.4993C17.7204 12.5 17.9323 12.4122 18.0886 12.2559C18.2449 12.0996 18.3327 11.8877 18.3327 11.6667C18.3327 11.4457 18.2449 11.2337 18.0886 11.0774C17.9323 10.9211 17.7204 10.8333 17.4993 10.8333Z" fill="black" fill-opacity="0.3"/>
</svg>
